<svg xmlns="http://www.w3.org/2000/svg" width="128" height="128" viewBox="0 0 128 128">
  <rect width="128" height="128" fill="none" />
  <!-- Small stars -->
  <circle cx="10" cy="12" r="0.8" fill="#ffffff"/>
  <circle cx="26" cy="18" r="0.8" fill="#ffffff"/>
  <circle cx="42" cy="8" r="0.8" fill="#ffffff"/>
  <circle cx="58" cy="22" r="0.8" fill="#ffffff"/>
  <circle cx="74" cy="10" r="0.8" fill="#ffffff"/>
  <circle cx="90" cy="24" r="0.8" fill="#ffffff"/>
  <circle cx="106" cy="12" r="0.8" fill="#ffffff"/>
  <circle cx="16" cy="40" r="0.8" fill="#ffffff"/>
  <circle cx="32" cy="52" r="0.8" fill="#ffffff"/>
  <circle cx="48" cy="44" r="0.8" fill="#ffffff"/>
  <circle cx="64" cy="56" r="0.8" fill="#ffffff"/>
  <circle cx="80" cy="48" r="0.8" fill="#ffffff"/>
  <circle cx="96" cy="60" r="0.8" fill="#ffffff"/>
  <circle cx="112" cy="52" r="0.8" fill="#ffffff"/>
  <!-- Medium stars -->
  <circle cx="22" cy="86" r="1.2" fill="#ffffff"/>
  <circle cx="50" cy="78" r="1.2" fill="#ffffff"/>
  <circle cx="78" cy="90" r="1.2" fill="#ffffff"/>
  <circle cx="106" cy="82" r="1.2" fill="#ffffff"/>
  <circle cx="34" cy="108" r="1.2" fill="#ffffff"/>
  <circle cx="62" cy="100" r="1.2" fill="#ffffff"/>
  <circle cx="90" cy="112" r="1.2" fill="#ffffff"/>
  <!-- Larger stars with slight glow -->
  <g filter="url(#softGlow)">
    <circle cx="18" cy="18" r="1.6" fill="#ffffff"/>
    <circle cx="70" cy="30" r="1.6" fill="#ffffff"/>
    <circle cx="104" cy="104" r="1.6" fill="#ffffff"/>
    <circle cx="40" cy="96" r="1.6" fill="#ffffff"/>
  </g>
  <defs>
    <filter id="softGlow" x="-50%" y="-50%" width="200%" height="200%">
      <feGaussianBlur stdDeviation="0.6" result="blur"/>
      <feMerge>
        <feMergeNode in="blur"/>
        <feMergeNode in="SourceGraphic"/>
      </feMerge>
    </filter>
  </defs>
</svg>